<svg xmlns="http://www.w3.org/2000/svg" width="900" height="420" viewBox="0 0 900 420">
  <rect width="100%" height="100%" fill="#0d1117"/>
  <text x="60" y="30" fill="#f0f6fc" font-size="24" font-family="Segoe UI, Arial, sans-serif">Сложный старт: x - sin(x) - 0.5, x0 = -2.5</text>
  <text x="60" y="52" fill="#9fb0c7" font-size="14" font-family="Segoe UI, Arial, sans-serif">По оси Y: log10(|f(x_n)|), по оси X: номер итерации</text>
  <line x1="60" y1="60.0" x2="840" y2="60.0" stroke="#273244" stroke-width="1"/><text x="12" y="64.0" fill="#9fb0c7" font-size="14">9.54</text><line x1="60" y1="120.0" x2="840" y2="120.0" stroke="#273244" stroke-width="1"/><text x="12" y="124.0" fill="#9fb0c7" font-size="14">4.40</text><line x1="60" y1="180.0" x2="840" y2="180.0" stroke="#273244" stroke-width="1"/><text x="12" y="184.0" fill="#9fb0c7" font-size="14">-0.75</text><line x1="60" y1="240.0" x2="840" y2="240.0" stroke="#273244" stroke-width="1"/><text x="12" y="244.0" fill="#9fb0c7" font-size="14">-5.89</text><line x1="60" y1="300.0" x2="840" y2="300.0" stroke="#273244" stroke-width="1"/><text x="12" y="304.0" fill="#9fb0c7" font-size="14">-11.03</text><line x1="60" y1="360.0" x2="840" y2="360.0" stroke="#273244" stroke-width="1"/><text x="12" y="364.0" fill="#9fb0c7" font-size="14">-16.18</text><line x1="60.0" y1="60" x2="60.0" y2="360" stroke="#1b2330" stroke-width="1"/><text x="56.0" y="400" fill="#9fb0c7" font-size="14">0</text><line x1="92.5" y1="60" x2="92.5" y2="360" stroke="#1b2330" stroke-width="1"/><text x="88.5" y="400" fill="#9fb0c7" font-size="14">1</text><line x1="125.0" y1="60" x2="125.0" y2="360" stroke="#1b2330" stroke-width="1"/><text x="121.0" y="400" fill="#9fb0c7" font-size="14">2</text><line x1="157.5" y1="60" x2="157.5" y2="360" stroke="#1b2330" stroke-width="1"/><text x="153.5" y="400" fill="#9fb0c7" font-size="14">3</text><line x1="190.0" y1="60" x2="190.0" y2="360" stroke="#1b2330" stroke-width="1"/><text x="186.0" y="400" fill="#9fb0c7" font-size="14">4</text><line x1="222.5" y1="60" x2="222.5" y2="360" stroke="#1b2330" stroke-width="1"/><text x="218.5" y="400" fill="#9fb0c7" font-size="14">5</text><line x1="255.0" y1="60" x2="255.0" y2="360" stroke="#1b2330" stroke-width="1"/><text x="251.0" y="400" fill="#9fb0c7" font-size="14">6</text><line x1="287.5" y1="60" x2="287.5" y2="360" stroke="#1b2330" stroke-width="1"/><text x="283.5" y="400" fill="#9fb0c7" font-size="14">7</text><line x1="320.0" y1="60" x2="320.0" y2="360" stroke="#1b2330" stroke-width="1"/><text x="316.0" y="400" fill="#9fb0c7" font-size="14">8</text><line x1="352.5" y1="60" x2="352.5" y2="360" stroke="#1b2330" stroke-width="1"/><text x="348.5" y="400" fill="#9fb0c7" font-size="14">9</text><line x1="385.0" y1="60" x2="385.0" y2="360" stroke="#1b2330" stroke-width="1"/><text x="381.0" y="400" fill="#9fb0c7" font-size="14">10</text><line x1="417.5" y1="60" x2="417.5" y2="360" stroke="#1b2330" stroke-width="1"/><text x="413.5" y="400" fill="#9fb0c7" font-size="14">11</text><line x1="450.0" y1="60" x2="450.0" y2="360" stroke="#1b2330" stroke-width="1"/><text x="446.0" y="400" fill="#9fb0c7" font-size="14">12</text><line x1="482.5" y1="60" x2="482.5" y2="360" stroke="#1b2330" stroke-width="1"/><text x="478.5" y="400" fill="#9fb0c7" font-size="14">13</text><line x1="515.0" y1="60" x2="515.0" y2="360" stroke="#1b2330" stroke-width="1"/><text x="511.0" y="400" fill="#9fb0c7" font-size="14">14</text><line x1="547.5" y1="60" x2="547.5" y2="360" stroke="#1b2330" stroke-width="1"/><text x="543.5" y="400" fill="#9fb0c7" font-size="14">15</text><line x1="580.0" y1="60" x2="580.0" y2="360" stroke="#1b2330" stroke-width="1"/><text x="576.0" y="400" fill="#9fb0c7" font-size="14">16</text><line x1="612.5" y1="60" x2="612.5" y2="360" stroke="#1b2330" stroke-width="1"/><text x="608.5" y="400" fill="#9fb0c7" font-size="14">17</text><line x1="645.0" y1="60" x2="645.0" y2="360" stroke="#1b2330" stroke-width="1"/><text x="641.0" y="400" fill="#9fb0c7" font-size="14">18</text><line x1="677.5" y1="60" x2="677.5" y2="360" stroke="#1b2330" stroke-width="1"/><text x="673.5" y="400" fill="#9fb0c7" font-size="14">19</text><line x1="710.0" y1="60" x2="710.0" y2="360" stroke="#1b2330" stroke-width="1"/><text x="706.0" y="400" fill="#9fb0c7" font-size="14">20</text><line x1="742.5" y1="60" x2="742.5" y2="360" stroke="#1b2330" stroke-width="1"/><text x="738.5" y="400" fill="#9fb0c7" font-size="14">21</text><line x1="775.0" y1="60" x2="775.0" y2="360" stroke="#1b2330" stroke-width="1"/><text x="771.0" y="400" fill="#9fb0c7" font-size="14">22</text><line x1="807.5" y1="60" x2="807.5" y2="360" stroke="#1b2330" stroke-width="1"/><text x="803.5" y="400" fill="#9fb0c7" font-size="14">23</text><line x1="840.0" y1="60" x2="840.0" y2="360" stroke="#1b2330" stroke-width="1"/><text x="836.0" y="400" fill="#9fb0c7" font-size="14">24</text>
  <line x1="60" y1="360" x2="840" y2="360" stroke="#8b949e" stroke-width="2"/>
  <line x1="60" y1="60" x2="60" y2="360" stroke="#8b949e" stroke-width="2"/>
  <polyline fill="none" stroke="#58a6ff" stroke-width="3" points="60.0,166.9 92.5,172.8 125.0,174.8 157.5,143.6 190.0,131.0 222.5,136.8 255.0,140.3 287.5,148.6 320.0,162.4 352.5,151.2 385.0,155.1 417.5,161.6 450.0,156.5 482.5,159.9 515.0,162.3 547.5,174.8 580.0,144.9 612.5,149.2 645.0,153.0 677.5,147.0 710.0,139.1 742.5,84.5 775.0,65.8 807.5,69.4 840.0,76.4"/>
  <polyline fill="none" stroke="#3fb950" stroke-width="3" points="60.0,166.9 92.5,172.8 125.0,174.8 157.5,185.8 190.0,202.3 222.5,236.0 255.0,303.5 287.5,354.2"/>
  <circle cx="630" cy="34" r="6" fill="#58a6ff"/>
  <text x="645" y="39" fill="#c9d1d9" font-size="15" font-family="Segoe UI, Arial, sans-serif">Чистый Ньютон</text>
  <circle cx="630" cy="60" r="6" fill="#3fb950"/>
  <text x="645" y="65" fill="#c9d1d9" font-size="15" font-family="Segoe UI, Arial, sans-serif">Демпфированный Ньютон</text>
</svg>
