<svg xmlns="http://www.w3.org/2000/svg" width="900" height="420" viewBox="0 0 900 420">
  <rect width="100%" height="100%" fill="#0d1117"/>
  <text x="60" y="30" fill="#f0f6fc" font-size="24" font-family="Segoe UI, Arial, sans-serif">Сложный старт: atan(x) - 0.8, x0 = -6.0</text>
  <text x="60" y="52" fill="#9fb0c7" font-size="14" font-family="Segoe UI, Arial, sans-serif">По оси Y: log10(|f(x_n)|), по оси X: номер итерации</text>
  <line x1="60" y1="60.0" x2="840" y2="60.0" stroke="#273244" stroke-width="1"/><text x="12" y="64.0" fill="#9fb0c7" font-size="14">0.87</text><line x1="60" y1="120.0" x2="840" y2="120.0" stroke="#273244" stroke-width="1"/><text x="12" y="124.0" fill="#9fb0c7" font-size="14">-2.60</text><line x1="60" y1="180.0" x2="840" y2="180.0" stroke="#273244" stroke-width="1"/><text x="12" y="184.0" fill="#9fb0c7" font-size="14">-6.08</text><line x1="60" y1="240.0" x2="840" y2="240.0" stroke="#273244" stroke-width="1"/><text x="12" y="244.0" fill="#9fb0c7" font-size="14">-9.55</text><line x1="60" y1="300.0" x2="840" y2="300.0" stroke="#273244" stroke-width="1"/><text x="12" y="304.0" fill="#9fb0c7" font-size="14">-13.03</text><line x1="60" y1="360.0" x2="840" y2="360.0" stroke="#273244" stroke-width="1"/><text x="12" y="364.0" fill="#9fb0c7" font-size="14">-16.50</text><line x1="60.0" y1="60" x2="60.0" y2="360" stroke="#1b2330" stroke-width="1"/><text x="56.0" y="400" fill="#9fb0c7" font-size="14">0</text><line x1="146.7" y1="60" x2="146.7" y2="360" stroke="#1b2330" stroke-width="1"/><text x="142.7" y="400" fill="#9fb0c7" font-size="14">1</text><line x1="233.3" y1="60" x2="233.3" y2="360" stroke="#1b2330" stroke-width="1"/><text x="229.3" y="400" fill="#9fb0c7" font-size="14">2</text><line x1="320.0" y1="60" x2="320.0" y2="360" stroke="#1b2330" stroke-width="1"/><text x="316.0" y="400" fill="#9fb0c7" font-size="14">3</text><line x1="406.7" y1="60" x2="406.7" y2="360" stroke="#1b2330" stroke-width="1"/><text x="402.7" y="400" fill="#9fb0c7" font-size="14">4</text><line x1="493.3" y1="60" x2="493.3" y2="360" stroke="#1b2330" stroke-width="1"/><text x="489.3" y="400" fill="#9fb0c7" font-size="14">5</text><line x1="580.0" y1="60" x2="580.0" y2="360" stroke="#1b2330" stroke-width="1"/><text x="576.0" y="400" fill="#9fb0c7" font-size="14">6</text><line x1="666.7" y1="60" x2="666.7" y2="360" stroke="#1b2330" stroke-width="1"/><text x="662.7" y="400" fill="#9fb0c7" font-size="14">7</text><line x1="753.3" y1="60" x2="753.3" y2="360" stroke="#1b2330" stroke-width="1"/><text x="749.3" y="400" fill="#9fb0c7" font-size="14">8</text><line x1="840.0" y1="60" x2="840.0" y2="360" stroke="#1b2330" stroke-width="1"/><text x="836.0" y="400" fill="#9fb0c7" font-size="14">9</text>
  <line x1="60" y1="360" x2="840" y2="360" stroke="#8b949e" stroke-width="2"/>
  <line x1="60" y1="60" x2="60" y2="360" stroke="#8b949e" stroke-width="2"/>
  <polyline fill="none" stroke="#58a6ff" stroke-width="3" points="60.0,69.2 146.7,77.2 233.3,68.6 320.0,77.1"/>
  <polyline fill="none" stroke="#3fb950" stroke-width="3" points="60.0,69.2 146.7,69.4 233.3,69.8 320.0,71.0 406.7,78.5 493.3,92.7 580.0,111.7 666.7,148.2 753.3,221.1 840.0,351.4"/>
  <circle cx="630" cy="34" r="6" fill="#58a6ff"/>
  <text x="645" y="39" fill="#c9d1d9" font-size="15" font-family="Segoe UI, Arial, sans-serif">Чистый Ньютон</text>
  <circle cx="630" cy="60" r="6" fill="#3fb950"/>
  <text x="645" y="65" fill="#c9d1d9" font-size="15" font-family="Segoe UI, Arial, sans-serif">Демпфированный Ньютон</text>
</svg>
